<?xml version="1.0" encoding="UTF-8"?>
<svg xmlns="http://www.w3.org/2000/svg" width="32" height="32" viewBox="0 0 32 32">
  <path d="M31.56901,9.74253l-8.00358-1.30106L22.37823.43814c-.03694-.25036-.25036-.43608-.50381-.43814h-.00308c-.2514,0-.46688.18264-.50689.43197l-1.27134,7.94587-8.07952,1.3657c-.24934.04207-.42994.25959-.42789.51304.00308.25242.18983.46583.4402.50175l6.70967.96143L.32015,30.13461c-.42686.42685-.42686,1.11842,0,1.54526.42686.42685,1.11845.42685,1.54531,0L20.30038,13.2445l1.05175,6.73409c.03899.24933.25448.43402.50689.43402s.46791-.18469.50689-.43402l1.26108-8.06593,7.93381-1.15535c.25036-.03694.43711-.25036.43918-.5038.00205-.25344-.1806-.46994-.43096-.51099h-.00001ZM23.18313,10.99673c-.23545.03363-.42099.21808-.45788.45243l-.85824,6.51933-.85824-6.51932c-.03688-.23544-.22351-.41988-.45896-.45353l-6.51518-.78661,6.52712-.92982c.23002-.03906.40905-.22026.44595-.44918l.84957-6.33813.79749,6.40214c.03363.23327.21592.41771.44919.45569l6.40669.8745-6.32964.77251h.00217-.00004Z"/>
</svg>